0
SECTION
2
HEADER
9
$INSUNITS
70
4
9
$ACADVER
1
AC1014
9
$HANDSEED
5
FFFF
0
ENDSEC
0
SECTION
2
TABLES
0
TABLE
2
VPORT
5
8
100
AcDbSymbolTable
0
ENDTAB
0
TABLE
2
LTYPE
5
5
100
AcDbSymbolTable
0
LTYPE
5
14
100
AcDbSymbolTableRecord
100
AcDbLinetypeTableRecord
2
BYBLOCK
70
0
0
LTYPE
5
15
100
AcDbSymbolTableRecord
100
AcDbLinetypeTableRecord
2
BYLAYER
70
0
0
ENDTAB
0
TABLE
2
LAYER
5
2
100
AcDbSymbolTable
70
2
0
LAYER
5
50
100
AcDbSymbolTableRecord
100
AcDbLayerTableRecord
2
0
70
0
6
CONTINUOUS
0
ENDTAB
0
TABLE
2
STYLE
5
3
100
AcDbSymbolTable
70
1
0
STYLE
5
11
100
AcDbSymbolTableRecord
100
AcDbTextStyleTableRecord
2
STANDARD
70
0
0
ENDTAB
0
TABLE
2
VIEW
5
6
100
AcDbSymbolTable
70
0
0
ENDTAB
0
TABLE
2
UCS
5
7
100
AcDbSymbolTable
70
0
0
ENDTAB
0
TABLE
2
APPID
5
9
100
AcDbSymbolTable
70
2
0
APPID
5
12
100
AcDbSymbolTableRecord
100
AcDbRegAppTableRecord
2
ACAD
70
0
0
ENDTAB
0
TABLE
2
DIMSTYLE
5
A
100
AcDbSymbolTable
70
1
0
ENDTAB
0
TABLE
2
BLOCK_RECORD
5
1
100
AcDbSymbolTable
70
1
0
BLOCK_RECORD
5
1F
100
AcDbSymbolTableRecord
100
AcDbBlockTableRecord
2
*MODEL_SPACE
0
BLOCK_RECORD
5
1B
100
AcDbSymbolTableRecord
100
AcDbBlockTableRecord
2
*PAPER_SPACE
0
ENDTAB
0
ENDSEC
0
SECTION
2
BLOCKS
0
BLOCK
5
20
100
AcDbEntity
100
AcDbBlockBegin
2
*MODEL_SPACE
0
ENDBLK
5
21
100
AcDbEntity
100
AcDbBlockEnd
0
BLOCK
5
1C
100
AcDbEntity
100
AcDbBlockBegin
2
*PAPER_SPACE
0
ENDBLK
5
1D
100
AcDbEntity
100
AcDbBlockEnd
0
ENDSEC
0
SECTION
2
ENTITIES
0
LWPOLYLINE
5
100
100
AcDbEntity
8
0
100
AcDbPolyline
90
43
70
1
43
0.0
10
-436.35199999999998
20
113.63100000000001
42
-0.4142135623730534
10
-435.85199999999998
20
114.13100000000001
10
18.380999999999993
20
114.13100000000001
42
-0.41421356237308982
10
18.881000000000014
20
113.631
10
18.880999999999982
20
-18.381000000000004
42
-0.41421356237309503
10
18.380999999999972
20
-18.881000000000007
10
-293.93933533660567
20
-18.880999999999958
42
-0.3230299105616885
10
-294.41379546718827
20
-18.538757993418677
10
-294.79874999999998
20
-17.380999999999961
10
-294.79874999999998
20
-17.227296116897911
42
-0.11147742282068583
10
-294.91254546718824
20
-17.038757993418699
10
-297.43257126808822
20
-9.4597330283060739
42
-0.0824077143670017
10
-297.4580955850596
20
-9.2980314065935321
10
-297.42322513595036
20
-4.877056371706173
42
-0.41190529676006826
10
-296.92324068839639
20
-4.3809999999999913
10
3.8809999999999856
20
-4.3810000000000056
42
0.41421356237308982
10
4.380999999999986
20
-3.8810000000000144
10
4.3809999999999789
20
99.131
42
0.41421356237309503
10
3.8809999999999789
20
99.631
10
-290.13100000000003
20
99.631
10
-421.3482628501489
20
100.61178454486766
42
0.41640445274576293
10
-421.85200000000003
20
100.11179851135174
10
-421.85200000000003
20
48.617274866234823
42
0.41421356237309503
10
-421.35200000000003
20
48.11727486623483
10
-406.10199999999986
20
48.117274866234823
10
-406.10199999999986
20
8.8681374331174183
42
0.41421356237309503
10
-405.60199999999986
20
8.3681374331174183
10
-349.10199999999986
20
8.3681374331174183
42
0.41421356237309631
10
-348.60199999999992
20
8.8681374331174201
10
-348.60199999999992
20
47.617274866234816
42
-0.41421356237310542
10
-348.10199999999998
20
48.117274866234823
10
-340.35199999999986
20
48.117274866234823
42
-0.41421356237310542
10
-339.85199999999992
20
47.617274866234837
10
-339.85199999999992
20
-3.8809999999999887
42
0.41421356237309503
10
-339.35199999999998
20
-4.3809999999999878
10
-332.66874999999999
20
-4.3809999999999603
42
-0.41421356237312984
10
-332.16875000000005
20
-4.8809999999999913
10
-332.16875000000005
20
-8.8095176709392558
42
-0.080458089615416326
10
-332.19431199417778
20
-8.9673421894127987
10
-335.4238510342654
20
-18.675694711084105
42
-0.32299119934581155
10
-335.70851383775874
20
-18.88099999999995
10
-435.85199999999998
20
-18.880999999999993
42
-0.41421356237313406
10
-436.35199999999998
20
-18.380999999999954
0
LWPOLYLINE
5
101
100
AcDbEntity
8
0
100
AcDbPolyline
90
6
70
1
43
0.0
10
-425.37975681356647
20
-6.830999999999964
10
-428.32424318643359
20
-6.8309999999999613
10
-429.79648637286715
20
-9.3809999999999611
10
-428.32424318643353
20
-11.930999999999967
10
-425.37975681356642
20
-11.930999999999969
10
-423.90751362713286
20
-9.38099999999997
0
LWPOLYLINE
5
102
100
AcDbEntity
8
0
100
AcDbPolyline
90
6
70
1
43
0.0
10
-207.26325681356644
20
-6.830999999999996
10
-210.20774318643356
20
-6.8309999999999764
10
-211.67998637286712
20
-9.38099999999997
10
-210.20774318643359
20
-11.930999999999985
10
-207.2632568135665
20
-11.930999999999994
10
-205.79101362713291
20
-9.3810000000000073
0
LWPOLYLINE
5
103
100
AcDbEntity
8
0
100
AcDbPolyline
90
6
70
1
43
0.0
10
-425.3607384734479
20
108.19198672777009
10
-428.30514259807097
20
108.21399470138996
10
-429.79640412462317
20
105.67506991726862
10
-428.34326152655217
20
103.11413715952742
10
-425.39885740192909
20
103.09212918590757
10
-423.90759587537684
20
105.63105397002889
0
LWPOLYLINE
5
104
100
AcDbEntity
8
0
100
AcDbPolyline
90
6
70
1
43
0.0
10
-207.26325681356644
20
107.181
10
-210.20774318643356
20
107.18100000000001
10
-211.67998637286712
20
104.63100000000003
10
-210.20774318643359
20
102.08100000000002
10
-207.2632568135665
20
102.081
10
-205.79101362713291
20
104.63099999999999
0
LWPOLYLINE
5
105
100
AcDbEntity
8
0
100
AcDbPolyline
90
6
70
1
43
0.0
10
10.853243186433517
20
107.18100000000001
10
7.9087568135664554
20
107.181
10
6.4365136271329249
20
104.63099999999999
10
7.9087568135664554
20
102.081
10
10.853243186433588
20
102.08100000000002
10
12.325486372867118
20
104.63100000000003
0
LWPOLYLINE
5
106
100
AcDbEntity
8
0
100
AcDbPolyline
90
6
70
1
43
0.0
10
10.853243186433517
20
-6.830999999999996
10
7.9087568135664554
20
-6.8309999999999969
10
6.4365136271329249
20
-9.3810000000000002
10
7.9087568135664554
20
-11.931000000000003
10
10.853243186433517
20
-11.931000000000004
10
12.325486372867118
20
-9.3810000000000002
0
ENDSEC
0
SECTION
2
OBJECTS
0
DICTIONARY
5
C
100
AcDbDictionary
3
ACAD_GROUP
350
D
3
ACAD_MLINESTYLE
350
17
0
DICTIONARY
5
D
100
AcDbDictionary
0
DICTIONARY
5
1A
330
C
100
AcDbDictionary
0
DICTIONARY
5
17
100
AcDbDictionary
0
ENDSEC
0
EOF
