0
SECTION
2
HEADER
9
$INSUNITS
70
4
9
$ACADVER
1
AC1014
9
$HANDSEED
5
FFFF
0
ENDSEC
0
SECTION
2
TABLES
0
TABLE
2
VPORT
5
8
100
AcDbSymbolTable
0
ENDTAB
0
TABLE
2
LTYPE
5
5
100
AcDbSymbolTable
0
LTYPE
5
14
100
AcDbSymbolTableRecord
100
AcDbLinetypeTableRecord
2
BYBLOCK
70
0
0
LTYPE
5
15
100
AcDbSymbolTableRecord
100
AcDbLinetypeTableRecord
2
BYLAYER
70
0
0
ENDTAB
0
TABLE
2
LAYER
5
2
100
AcDbSymbolTable
70
2
0
LAYER
5
50
100
AcDbSymbolTableRecord
100
AcDbLayerTableRecord
2
0
70
0
6
CONTINUOUS
0
ENDTAB
0
TABLE
2
STYLE
5
3
100
AcDbSymbolTable
70
1
0
STYLE
5
11
100
AcDbSymbolTableRecord
100
AcDbTextStyleTableRecord
2
STANDARD
70
0
0
ENDTAB
0
TABLE
2
VIEW
5
6
100
AcDbSymbolTable
70
0
0
ENDTAB
0
TABLE
2
UCS
5
7
100
AcDbSymbolTable
70
0
0
ENDTAB
0
TABLE
2
APPID
5
9
100
AcDbSymbolTable
70
2
0
APPID
5
12
100
AcDbSymbolTableRecord
100
AcDbRegAppTableRecord
2
ACAD
70
0
0
ENDTAB
0
TABLE
2
DIMSTYLE
5
A
100
AcDbSymbolTable
70
1
0
ENDTAB
0
TABLE
2
BLOCK_RECORD
5
1
100
AcDbSymbolTable
70
1
0
BLOCK_RECORD
5
1F
100
AcDbSymbolTableRecord
100
AcDbBlockTableRecord
2
*MODEL_SPACE
0
BLOCK_RECORD
5
1B
100
AcDbSymbolTableRecord
100
AcDbBlockTableRecord
2
*PAPER_SPACE
0
ENDTAB
0
ENDSEC
0
SECTION
2
BLOCKS
0
BLOCK
5
20
100
AcDbEntity
100
AcDbBlockBegin
2
*MODEL_SPACE
0
ENDBLK
5
21
100
AcDbEntity
100
AcDbBlockEnd
0
BLOCK
5
1C
100
AcDbEntity
100
AcDbBlockBegin
2
*PAPER_SPACE
0
ENDBLK
5
1D
100
AcDbEntity
100
AcDbBlockEnd
0
ENDSEC
0
SECTION
2
ENTITIES
0
LWPOLYLINE
5
100
100
AcDbEntity
8
0
100
AcDbPolyline
90
8
70
1
43
0.0
10
-433.35199999999998
20
110.631
42
-0.4142135623730534
10
-432.85200000000003
20
111.13100000000001
10
15.380999999999982
20
111.13100000000001
42
-0.41421356237309243
10
15.880999999999972
20
110.63100000000003
10
15.880999999999982
20
-15.381
42
-0.41421356237308204
10
15.381
20
-15.881
10
-432.85200000000003
20
-15.880999999999963
42
-0.41421356237311063
10
-433.35199999999998
20
-15.380999999999965
0
CIRCLE
5
101
100
AcDbEntity
8
0
100
AcDbCircle
10
-337.35199999999986
20
62.617274866234816
30
0
40
1.0000000000000142
210
0
220
0
230
1
0
CIRCLE
5
102
100
AcDbEntity
8
0
100
AcDbCircle
10
-417.35199999999992
20
62.617274866234816
30
0
40
1.0000000000000142
210
0
220
0
230
1
0
LWPOLYLINE
5
103
100
AcDbEntity
8
0
100
AcDbPolyline
90
6
70
1
43
0.0
10
-425.37975681356642
20
-11.930999999999969
10
-423.90751362713286
20
-9.38099999999997
10
-425.37975681356647
20
-6.830999999999964
10
-428.32424318643359
20
-6.8309999999999613
10
-429.79648637286715
20
-9.3809999999999611
10
-428.32424318643353
20
-11.930999999999967
0
LWPOLYLINE
5
104
100
AcDbEntity
8
0
100
AcDbPolyline
90
6
70
1
43
0.0
10
10.853243186433549
20
-11.931000000000004
10
12.325486372867093
20
-9.3810000000000002
10
10.853243186433543
20
-6.830999999999996
10
7.9087568135664483
20
-6.8309999999999969
10
6.4365136271329026
20
-9.3810000000000002
10
7.9087568135664483
20
-11.931000000000003
0
LWPOLYLINE
5
105
100
AcDbEntity
8
0
100
AcDbPolyline
90
6
70
1
43
0.0
10
-207.2632568135665
20
-11.930999999999994
10
-205.79101362713291
20
-9.3810000000000073
10
-207.26325681356644
20
-6.830999999999996
10
-210.20774318643356
20
-6.8309999999999764
10
-211.67998637286712
20
-9.38099999999997
10
-210.20774318643359
20
-11.930999999999985
0
LWPOLYLINE
5
106
100
AcDbEntity
8
0
100
AcDbPolyline
90
6
70
1
43
0.0
10
-425.39885740192909
20
103.09212918590757
10
-423.90759587537684
20
105.63105397002889
10
-425.3607384734479
20
108.19198672777009
10
-428.30514259807097
20
108.21399470138996
10
-429.79640412462317
20
105.67506991726862
10
-428.34326152655217
20
103.11413715952742
0
LWPOLYLINE
5
107
100
AcDbEntity
8
0
100
AcDbPolyline
90
6
70
1
43
0.0
10
10.853243186433566
20
102.08100000000002
10
12.325486372867099
20
104.63100000000003
10
10.853243186433536
20
107.18100000000001
10
7.9087568135664457
20
107.181
10
6.4365136271329115
20
104.63099999999999
10
7.9087568135664696
20
102.081
0
LWPOLYLINE
5
108
100
AcDbEntity
8
0
100
AcDbPolyline
90
6
70
1
43
0.0
10
-207.2632568135665
20
102.081
10
-205.79101362713291
20
104.63099999999999
10
-207.26325681356644
20
107.181
10
-210.20774318643356
20
107.18100000000001
10
-211.67998637286712
20
104.63100000000003
10
-210.20774318643359
20
102.08100000000002
0
LWPOLYLINE
5
109
100
AcDbEntity
8
0
100
AcDbPolyline
90
33
70
1
43
0.0
10
-391.35199999999986
20
48.117274866234808
42
-0.41421356237310542
10
-390.85199999999986
20
47.617274866234816
10
-390.85199999999986
20
11.617274866234828
42
0.41421356237309503
10
-390.35199999999986
20
11.11727486623483
10
-364.3519999999998
20
11.11727486623483
42
0.4142135623730937
10
-363.85199999999986
20
11.617274866234828
10
-363.85199999999986
20
47.617274866234837
42
-0.41421356237310542
10
-363.35199999999986
20
48.117274866234823
10
-340.35199999999986
20
48.11727486623483
42
-0.41421356237311585
10
-339.85199999999992
20
47.617274866234823
10
-339.85199999999992
20
-3.8809999999999967
42
0.41421356237309503
10
-339.35199999999998
20
-4.3809999999999949
10
3.8809999999999434
20
-4.3810000000000029
42
0.41421356237311974
10
4.380999999999986
20
-3.8809999999999967
10
4.3809999999999851
20
99.131
42
0.41421356237309892
10
3.8809999999999789
20
99.631
10
-290.13100000000003
20
99.631
10
-334.34826285014884
20
99.961502306463331
42
0.41640445274576293
10
-334.85199999999992
20
99.461516272947392
10
-334.85199999999992
20
61.317274866234825
42
-0.4142135623731254
10
-336.05199999999996
20
60.117274866234816
10
-343.6519999999997
20
60.117274866234816
42
-0.41421356237315576
10
-344.85199999999986
20
61.317274866234825
10
-344.85200000000202
20
99.543735866308907
42
0.41202606086339377
10
-345.34826285015095
20
100.04372189982479
10
-409.34826285014884
20
100.52209044301878
42
0.41640445274576293
10
-409.85199999999992
20
100.02210440950286
10
-409.85199999999992
20
61.317274866234825
42
-0.414213562373069
10
-411.05199999999991
20
60.117274866234823
10
-421.35200000000003
20
60.117274866234808
42
0.41421356237309503
10
-421.85200000000003
20
59.617274866234808
10
-421.85200000000003
20
48.61727486623483
42
0.41421356237309503
10
-421.35200000000003
20
48.11727486623483
0
LWPOLYLINE
5
110
100
AcDbEntity
8
0
100
AcDbPolyline
90
8
70
1
43
0.0
10
-431.85200000000009
20
109.131
42
-0.4142135623731783
10
-431.35200000000009
20
109.631
10
13.880999999999979
20
109.631
42
-0.41421356237309243
10
14.380999999999986
20
109.131
10
14.380999999999986
20
-13.881000000000014
42
-0.41421356237307422
10
13.881000000000014
20
-14.381000000000004
10
-431.35200000000003
20
-14.380999999999968
42
-0.41421356237318868
10
-431.85200000000003
20
-13.880999999999979
0
CIRCLE
5
111
100
AcDbEntity
8
0
100
AcDbCircle
10
-208.7355
20
-9.3809999999999931
30
0
40
1.5249999999999986
210
0
220
0
230
1
0
CIRCLE
5
112
100
AcDbEntity
8
0
100
AcDbCircle
10
-208.7355
20
104.631
30
0
40
1.5249999999999986
210
0
220
0
230
1
0
CIRCLE
5
113
100
AcDbEntity
8
0
100
AcDbCircle
10
9.3810000000000002
20
104.631
30
0
40
1.5249999999999986
210
0
220
0
230
1
0
CIRCLE
5
114
100
AcDbEntity
8
0
100
AcDbCircle
10
-426.85200000000003
20
-9.3809999999999754
30
0
40
1.5249999999999631
210
0
220
0
230
1
0
CIRCLE
5
115
100
AcDbEntity
8
0
100
AcDbCircle
10
-426.85200000000003
20
105.65306194364877
30
0
40
1.5249999999999631
210
0
220
0
230
1
0
CIRCLE
5
116
100
AcDbEntity
8
0
100
AcDbCircle
10
9.3810000000000002
20
-9.381000000000002
30
0
40
1.5250000000000008
210
0
220
0
230
1
0
CIRCLE
5
117
100
AcDbEntity
8
0
100
AcDbCircle
10
-337.35199999999986
20
62.617274866234816
30
0
40
1.0000000000000142
210
0
220
0
230
1
0
CIRCLE
5
118
100
AcDbEntity
8
0
100
AcDbCircle
10
-417.35199999999992
20
62.617274866234816
30
0
40
1.0000000000000142
210
0
220
0
230
1
0
ENDSEC
0
SECTION
2
OBJECTS
0
DICTIONARY
5
C
100
AcDbDictionary
3
ACAD_GROUP
350
D
3
ACAD_MLINESTYLE
350
17
0
DICTIONARY
5
D
100
AcDbDictionary
0
DICTIONARY
5
1A
330
C
100
AcDbDictionary
0
DICTIONARY
5
17
100
AcDbDictionary
0
ENDSEC
0
EOF
